<svg width="40.000000" height="40.000000" viewBox="0 0 40 40" fill="none" xmlns="http://www.w3.org/2000/svg" xmlns:xlink="http://www.w3.org/1999/xlink">
	<desc>
			Created with Pixso.
	</desc>
	<defs>
		<clipPath id="clip10012_6834">
			<rect id="右" rx="0.000000" width="39.000000" height="39.000000" transform="translate(40.500000 0.500000) rotate(90.000000)" fill="white" fill-opacity="0"/>
		</clipPath>
	</defs>
	<rect id="右" rx="0.000000" width="39.000000" height="39.000000" transform="translate(40.500000 0.500000) rotate(90.000000)" fill="#FFFFFF" fill-opacity="0"/>
	<g clip-path="url(#clip10012_6834)">
		<path id="Vector" d="M12.91 7.07C12.67 7.3 12.52 7.61 12.5 7.94C12.48 8.27 12.58 8.6 12.78 8.87L12.91 9.01L25.12 20.97C25.38 21.22 25.74 21.37 26.1 21.37C26.47 21.37 26.83 21.22 27.09 20.96C27.33 20.73 27.47 20.42 27.5 20.09C27.52 19.75 27.42 19.42 27.21 19.16L27.08 19.02L14.87 7.06C14.61 6.81 14.26 6.66 13.89 6.66C13.52 6.66 13.17 6.81 12.91 7.06L12.91 7.07ZM12.91 30.98C12.78 31.11 12.67 31.26 12.6 31.43C12.53 31.59 12.5 31.77 12.5 31.95C12.5 32.13 12.53 32.31 12.6 32.48C12.67 32.65 12.77 32.8 12.91 32.92C13.14 33.16 13.46 33.3 13.8 33.33C14.13 33.35 14.46 33.25 14.73 33.05L14.88 32.93L22.98 24.99C23.12 24.86 23.22 24.71 23.29 24.54C23.36 24.38 23.39 24.2 23.39 24.02C23.39 23.84 23.36 23.66 23.29 23.49C23.22 23.33 23.12 23.17 22.99 23.05C22.75 22.81 22.43 22.67 22.1 22.65C21.76 22.62 21.43 22.72 21.16 22.92L21.02 23.04L12.91 30.98L12.91 30.98Z" fill="#FFFFFF" fill-opacity="1.000000" fill-rule="nonzero"/>
	</g>
</svg>
