<svg viewBox="0 0 20 20" xmlns="http://www.w3.org/2000/svg" xmlns:xlink="http://www.w3.org/1999/xlink" width="20" height="20" fill="none">
	<rect id="搜索 1" width="20" height="20" x="0" y="0" fill="rgb(255,255,255)" fill-opacity="0" />
	<path id="Vector" d="M18.1273 17.1725L15.2623 14.3716L15.1957 14.2691C15.0698 14.1439 14.8995 14.0736 14.7219 14.0736C14.5443 14.0736 14.374 14.1439 14.2481 14.2691C11.8131 16.5025 8.06232 16.6241 5.48232 14.5525C2.90232 12.4816 2.29398 8.86081 4.06065 6.09164C5.82732 3.32248 9.42065 2.26414 12.4582 3.61831C15.4957 4.97248 17.0331 8.31998 16.0532 11.44C16.0187 11.5508 16.0145 11.6689 16.0412 11.7819C16.0679 11.8949 16.1244 11.9987 16.2048 12.0825C16.2866 12.1675 16.3889 12.23 16.5019 12.2639C16.6149 12.2977 16.7348 12.3019 16.8498 12.2758C16.9644 12.2507 17.0704 12.1959 17.1571 12.1169C17.2438 12.0379 17.3083 11.9375 17.344 11.8258C18.5156 8.12414 16.7457 4.13998 13.1773 2.45081C9.60898 0.762477 5.31482 1.87581 3.07232 5.07081C0.828151 8.26664 1.30982 12.585 4.20565 15.2333C7.10065 17.8808 11.539 18.0633 14.6515 15.6625L17.1882 18.1425C17.3153 18.2649 17.485 18.3333 17.6615 18.3333C17.838 18.3333 18.0077 18.2649 18.1348 18.1425C18.1969 18.0816 18.2462 18.009 18.2799 17.9289C18.3136 17.8488 18.3309 17.7627 18.3309 17.6758C18.3309 17.5889 18.3136 17.5028 18.2799 17.4227C18.2462 17.3426 18.1969 17.27 18.1348 17.2091L18.1281 17.1725L18.1273 17.1725Z" fill="rgb(133,18,13)" fill-rule="nonzero" />
</svg>
